<svg xmlns="http://www.w3.org/2000/svg" fill= '#c89551' viewBox="0 0 512 512"><path d="M428.8 137.6h-86.2a115.5 115.5 0 0 0 2.2-22.4c0-47.9-35.1-83.2-92-83.2-45.3 0-57 48.5-75.7 78.8-7.7 12.4-17 23.3-25.9 33.3l-.1 .1-.1 .1C135.7 161.8 127.8 168 120.8 168h-2.7c-5.7-5-13.5-8-22.1-8H32c-17.7 0-32 12.9-32 28.8v230.4C0 435.1 14.3 448 32 448h64c8.6 0 16.4-3 22.1-8h2.7c28.7 0 67.1 40 127.2 40h21.3c62.5 0 98.8-38.7 99.9-91.1 12.5-17.8 18.5-40.8 16-62.8A93.1 93.1 0 0 0 393.2 304H428.8c45.4 0 83.2-37.6 83.2-83.2 0-45.1-38.1-83.2-83.2-83.2zm0 118.4h-91c12.8 14.7 14.4 42.8-5 61.1 11.2 19.6 1.7 45.6-12.9 53.6 6.5 39.1-10.1 61.3-50.6 61.3H248c-45.5 0-77.2-35.9-120-39.7V215.6c25.2-3 43-21.2 59.1-39.6 11.3-12.7 21.7-25.3 30.8-39.9C232.4 112.7 244 80 252.8 80c23.4 0 44 8.8 44 35.2 0 35.2-26.4 53.1-26.4 70.4h158.4c18.4 0 35.2 16.5 35.2 35.2 0 19-16.2 35.2-35.2 35.2zM88 384c0 13.3-10.7 24-24 24s-24-10.7-24-24 10.7-24 24-24 24 10.7 24 24z"/></svg>